<svg xmlns="http://www.w3.org/2000/svg"
shape-rendering="geometricPrecision"
width="4000" height="4000" viewBox="0 0 1024 1024">
  <metadata>null</metadata>

<path d="
M 51.926 746.959
C 53.695 744.93 55.164 742.795 57.276 741.063
C 64.524 735.116 74.002 733.903 82.87 736.528
C 87.488 737.895 91.658 741.191 94.447 745.065
C 94.942 745.754 97.343 749.292 96.868 749.515
C 95.082 749.753 93.147 750.963 91.577 751.832
C 90.41 750.893 89.519 748.905 88.455 747.742
C 86.057 745.121 82.811 743.414 79.381 742.573
C 75.483 741.617 71.368 741.759 67.516 742.887
C 51.215 747.662 49.581 773.616 61.225 783.771
C 68.282 789.926 79.039 790.059 86.582 784.717
C 88.548 783.324 90.895 781.645 92.03 779.453
C 92.729 776.949 92.229 774.049 92.357 771.483
C 87.096 771.617 81.767 771.069 76.523 771.319
C 75.826 769.785 76.316 766.902 76.36 765.223
C 78.52 764.553 81.349 764.907 83.589 764.998
C 86.913 765.133 90.271 765.038 93.599 765.038
C 94.757 765.038 98.448 764.457 99.141 765.26
C 98.746 772.467 99.113 779.788 99.081 786.991
C 99.004 788.993 99.211 790.986 99.167 792.988
C 99.159 793.197 99.286 794.064 99.196 794.206
C 99.176 794.238 97.878 794.105 97.685 794.11
C 96.096 794.149 94.418 794.258 92.842 794.054
C 92.859 791.646 93.117 788.901 92.758 786.532
C 89.192 789.924 85.855 792.587 81.089 794.116
C 68.383 798.194 54.805 790.699 49.435 778.976
C 46.071 771.63 45.678 761.981 48.203 754.326
C 49.086 751.65 50.54 749.377 51.926 746.959 Z"
opacity="1" fill="rgb(23,42,62)" fill-rule="evenodd" />
<path d="
M 133.647 745.495
C 133.642 746.991 133.638 748.487 133.613 749.984
C 133.318 759.145 133.607 768.32 133.614 777.498
C 133.618 782.712 133.01 788.353 133.655 793.504
C 133.545 793.867 132.164 793.731 131.768 793.739
C 130.295 793.769 127.78 794.175 126.438 793.601
C 126.425 779.082 126.509 764.531 126.302 750.012
C 126.343 745.488 126.191 740.951 126.395 736.431
C 128.789 736.157 131.211 736.289 133.615 736.221
C 133.867 739.232 133.651 742.449 133.647 745.495 Z"
opacity="1" fill="rgb(25,42,62)" fill-rule="evenodd" />
<path d="
M 256.489 236.804
C 255.583 237.291 255.767 238.582 255.788 239.457
C 255.833 241.433 255.977 243.417 256.111 245.39
C 256.17 246.269 256.132 247.229 256.997 247.695
C 235.016 247.251 212.999 247.376 191.003 247.268
C 180.994 247.219 169.516 244.941 160.511 250.42
C 145.248 259.705 142.328 282.846 156.17 294.774
C 159.25 297.429 163.058 299.265 166.951 300.368
C 169.951 301.218 173.263 301.786 176.389 301.482
C 192.38 299.928 206.365 284.148 201.49 267.726
C 200.33 263.817 198.816 259.867 196.083 256.759
C 195.14 255.686 194.061 254.728 193.073 253.699
C 192.826 253.442 192.219 253.312 192.297 252.964
C 192.474 252.169 195.391 252.45 196.02 252.441
C 200.016 252.386 204.016 252.5 208.012 252.509
C 219.758 252.535 231.507 252.427 243.253 252.392
C 246.756 252.382 250.255 252.534 253.757 252.615
C 255.247 252.649 257.044 252.959 258.477 252.724
C 258.111 254.006 258.884 254.904 259.524 255.987
C 260.902 258.318 262.153 261.848 264.021 263.772
C 245.647 263.931 227.033 262.513 208.693 263.784
C 208.719 265.798 209.247 267.689 209.409 269.681
C 209.685 273.098 209.582 276.534 209.071 279.927
C 206.976 293.849 195.896 304.763 182.864 309.041
C 177.478 310.347 172.182 310.849 166.695 309.685
C 143.937 304.853 132.636 279.055 141.755 258.407
C 143.903 253.542 147.549 249.559 151.573 246.174
C 156.614 241.932 163.02 238.707 169.517 237.453
C 176.921 236.024 185.004 236.755 192.505 236.757
C 206.34 236.76 220.175 236.605 234.01 236.622
C 241.483 236.631 249.027 237.024 256.489 236.804 Z"
opacity="1" fill="rgb(26,46,69)" fill-rule="evenodd" />
<path d="
M 177.984 217.777
C 202.157 217.718 226.335 217.683 250.506 217.788
C 249.976 217.937 249.486 218.116 248.942 218.229
C 247.954 219.2 248.165 220.263 248.119 221.59
C 248.046 223.721 247.987 225.838 248.038 227.97
C 248.058 228.778 247.809 230.421 248.482 230.98
C 245.564 231.407 242.442 231.096 239.499 231.088
C 234.166 231.074 228.832 231.073 223.498 231.085
C 206.191 231.123 188.886 231.074 171.579 231.034
C 167.466 231.024 163.346 230.981 159.231 230.937
C 157.221 230.916 154.633 231.188 152.722 230.486
C 150.143 229.538 148.841 226.572 148.801 224.012
C 148.784 222.068 148.898 219.333 150.523 217.951
C 151.796 216.869 155.88 217.721 157.505 217.727
C 164.323 217.754 171.17 217.925 177.984 217.777 Z"
opacity="1" fill="rgb(27,50,73)" fill-rule="evenodd" />
<path d="
M 153.473 270.094
C 153.965 267.121 155.23 264.183 156.907 261.693
C 158.616 259.157 160.796 256.843 163.409 255.223
C 168.448 252.1 175.371 251.064 181.024 252.969
C 190.972 256.321 197.69 267.111 196.049 277.438
C 193.872 291.135 178.552 299.912 165.731 294.025
C 162.456 292.522 159.684 290.138 157.52 287.279
C 155.809 285.019 154.645 282.331 153.976 279.587
C 153.23 276.53 152.957 273.21 153.473 270.094 Z
M 160.902 271.576
C 157.728 285.835 177.283 294.585 186.025 283.091
C 187.195 281.552 188.045 279.706 188.449 277.816
C 189.112 274.714 188.943 271.111 187.525 268.23
C 184.221 261.523 175.279 257.637 168.424 261.48
C 166.461 262.581 164.748 264.151 163.422 265.964
C 162.214 267.616 161.347 269.575 160.902 271.576 Z"
opacity="1" fill="rgb(26,46,69)" fill-rule="evenodd" />
<path d="
M 171.31 750.413
C 172.871 746.653 174.444 742.857 176.122 739.15
C 176.454 738.416 177.167 735.891 177.981 735.934
C 179.911 735.873 183.205 735.235 184.918 736.179
C 186.496 741.106 188.878 745.826 190.858 750.598
C 194.711 759.882 198.485 769.206 202.407 778.461
C 204.522 783.452 207.374 788.655 208.912 793.836
C 206.618 793.424 203.48 793.472 201.159 793.671
C 200.355 792.536 200.076 791.016 199.537 789.739
C 198.104 786.34 196.764 782.851 195.419 779.426
C 193.305 778.484 189.336 779.267 186.999 779.265
C 182.499 779.26 177.999 779.249 173.5 779.244
C 171.255 779.242 168.699 778.882 166.497 779.307
C 165.442 781.607 164.46 783.967 163.584 786.342
C 162.66 788.825 161.624 791.271 160.662 793.739
C 160.169 794.066 159.276 793.812 158.698 793.793
C 156.878 793.731 155.047 793.687 153.227 793.746
C 152.975 792.698 153.951 791.326 154.35 790.367
C 155.466 787.689 156.597 785.013 157.666 782.316
C 161.927 771.564 167.033 761.149 171.31 750.413 Z
M 169.418 772.642
C 169.362 772.82 169.306 772.998 169.251 773.176
C 174.639 772.907 180.115 773.095 185.511 773.148
C 187.89 773.171 190.537 773.487 192.889 773.15
C 193.02 772.646 192.393 771.621 192.23 771.11
C 191.553 768.983 190.551 766.944 189.723 764.872
C 186.774 757.492 183.675 750.163 180.759 742.781
C 179.674 747.259 177.617 751.634 175.937 755.921
C 173.763 761.471 171.78 767.177 169.418 772.642 Z"
opacity="1" fill="rgb(23,41,63)" fill-rule="evenodd" />
<path d="
M 340 629.64
C 332.666 629.704 325.332 629.693 317.998 629.693
C 288.333 629.678 258.668 629.642 229.004 629.627
C 212.836 629.627 196.668 629.551 180.501 629.587
C 176.442 629.596 172.384 629.531 168.325 629.553
C 166.922 629.56 164.73 629.96 163.653 628.922
C 163.029 627.746 162.903 626.436 162.602 625.156
C 161.649 621.107 160.72 615.183 165.412 612.959
C 168.263 611.608 172.902 612.507 176.009 612.513
C 184.033 612.528 192.056 612.462 200.08 612.428
C 240.018 612.258 279.959 612.362 319.898 612.444
C 327.269 612.459 334.64 612.49 342.01 612.505
C 344.772 612.51 348.926 611.78 351.347 613.349
C 356.333 616.58 354.799 624.704 353.186 629.492
C 349.159 630.405 344.134 629.617 340 629.64 Z"
opacity="1" fill="rgb(27,46,68)" fill-rule="evenodd" />
<path d="
M 166.938 272.078
C 168.392 266.225 175.32 263.46 180.01 267.672
C 182.464 269.875 183.314 273.7 182.555 276.84
C 181.455 281.392 175.497 284.014 171.349 282.068
C 167.673 280.344 165.981 275.932 166.938 272.078 Z"
opacity="1" fill="rgb(28,48,70)" fill-rule="evenodd" />
<path d="
M 179.585 599.135
C 179.324 596.49 181.079 592.754 183.793 591.972
C 186.564 591.174 190.138 591.835 193.003 591.858
C 199.17 591.908 205.337 591.939 211.505 591.946
C 243.171 591.979 274.838 591.945 306.504 591.922
C 311.969 591.918 317.434 591.832 322.898 591.829
C 325.547 591.827 328.486 591.475 331.092 592.014
C 333.816 592.578 335.572 595.268 335.873 597.875
C 336.194 600.655 335.37 604.6 332.5 605.84
C 330.012 606.914 326.159 606.272 323.5 606.281
C 317 606.304 310.5 606.28 304 606.279
C 272.334 606.271 240.668 606.287 209.003 606.322
C 202.673 606.329 196.126 606.878 189.824 606.392
C 187.406 606.206 184.741 606.833 182.55 605.52
C 180.261 604.149 179.824 601.564 179.585 599.135 Z"
opacity="1" fill="rgb(26,47,68)" fill-rule="evenodd" />
<path d="
M 194.43 577.061
C 195.881 572.896 199.521 572.928 203.211 572.917
C 209.475 572.899 215.738 572.849 222.002 572.849
C 247.492 572.846 272.985 573.062 298.474 572.873
C 302.251 572.845 306.028 572.785 309.806 572.785
C 312.026 572.785 314.463 572.581 316.633 573.139
C 319.699 573.927 321.224 576.932 321.152 579.91
C 321.099 582.052 319.883 584.799 317.612 585.397
C 315.13 586.051 312.053 585.606 309.5 585.603
C 304.167 585.597 298.833 585.59 293.499 585.584
C 267.663 585.552 241.836 585.6 216.001 585.619
C 212.002 585.622 208.002 585.596 204.003 585.598
C 201.975 585.599 199.544 585.973 197.587 585.346
C 194.424 584.332 193.446 579.885 194.43 577.061 Z"
opacity="1" fill="rgb(26,46,67)" fill-rule="evenodd" />
<path d="
M 279.742 284.777
C 279.653 286.497 280.756 288.258 281.501 289.775
C 282.578 291.966 283.499 294.256 284.4 296.524
C 284.758 297.426 286.279 299.95 284.958 300.534
C 282.513 298.585 277.81 298.307 276.436 301.813
C 275.251 304.835 276.14 309.291 275.997 312.508
C 275.411 325.71 276.103 339.122 276.173 352.343
C 276.195 356.594 277.343 364.276 270.962 364.248
C 264.017 364.218 265.843 353.962 265.85 349.5
C 265.87 336.843 266.007 324.186 266.05 311.531
C 266.062 307.763 267.558 300.67 262.9 299.03
C 260.625 298.228 257.185 299.022 256.632 301.708
C 255.964 304.949 256.451 308.712 256.437 312.012
C 256.409 318.845 256.442 325.678 256.45 332.51
C 256.477 357.343 256.549 382.171 256.646 406.998
C 256.678 415.331 256.612 423.664 256.638 431.997
C 256.654 436.887 256.923 441.873 256.631 446.749
C 257.678 446.758 259.628 444.119 260.412 443.389
C 263.825 440.214 268.331 437.416 271.174 433.712
C 272.035 430.772 271.44 426.979 271.448 423.933
C 271.468 416.787 271.373 409.643 271.367 402.498
C 271.364 399.332 271.365 396.167 271.401 393.001
C 271.415 391.797 271.791 390.055 271.484 388.911
C 268.867 387.464 266.105 385.877 265.125 382.848
C 263.17 376.806 269.257 371.908 274.961 373.222
C 279.939 374.37 282.183 380.25 279.96 384.709
C 278.831 386.973 277.131 388.125 274.808 388.959
C 274.137 392.158 274.869 396.267 274.872 399.568
C 274.88 407.706 274.896 415.845 274.969 423.983
C 275.002 427.662 275.637 431.631 275.101 435.278
C 273.895 436.992 271.652 438.254 270.052 439.596
C 266.248 442.783 262.661 446.304 259.046 449.704
C 258.458 450.284 257.886 450.884 257.248 451.407
C 256.426 455.25 257.2 460.05 257.217 463.995
C 257.222 465.386 256.743 467.794 257.369 469.016
C 260.435 467.278 263.244 463.803 265.836 461.397
C 270.607 456.968 275.328 452.497 279.961 447.925
C 283.032 444.895 286.122 441.266 289.62 438.75
C 290.066 436.303 289.788 433.491 289.742 431.008
C 289.725 430.03 289.968 428.708 289.538 427.796
C 288.234 425.033 284.821 423.154 286.979 419.584
C 289.153 415.987 295.101 416.152 296.428 420.417
C 297.362 423.418 295.719 425.748 293.526 427.57
C 292.859 430.321 293.275 433.662 293.287 436.488
C 293.309 441.66 293.314 446.829 293.395 452
C 293.434 454.495 294.167 457.88 293.446 460.262
C 291.302 462.608 288.522 464.585 286.137 466.7
C 282.242 470.319 278.367 473.97 274.535 477.658
C 272.907 479.226 270.367 480.964 269.324 483.001
C 268.527 484.556 269.147 487.836 269.136 489.575
C 269.104 495.214 269.157 500.854 269.163 506.493
C 269.182 526.616 269.129 546.744 269.273 566.864
C 268.121 566.739 266.929 566.757 265.774 566.714
C 265.284 564.835 265.642 562.464 265.614 560.513
C 265.547 555.848 265.576 551.179 265.576 546.514
C 265.577 532.339 265.455 518.164 265.406 503.989
C 265.388 498.659 265.354 493.328 265.387 487.998
C 265.398 486.094 264.827 483.143 265.63 481.383
C 266.593 479.269 269.346 477.379 271.006 475.818
C 275.451 471.64 280.011 467.567 284.51 463.443
C 286.156 461.934 289.056 460.313 289.939 458.205
C 290.288 456.282 289.98 454.136 289.949 452.186
C 289.904 449.367 290.081 446.549 290.053 443.74
C 278.314 452.287 268.92 464.009 258.016 473.547
C 257.171 475.878 257.746 479.495 257.713 481.992
C 257.628 488.325 257.687 494.661 257.668 500.994
C 257.625 515.661 257.736 530.327 257.722 544.994
C 257.718 549.76 257.715 554.526 257.712 559.292
C 257.71 561.628 257.392 564.363 257.837 566.654
C 256.571 566.635 255.283 566.67 254.016 566.69
C 253.524 566.698 252.726 566.926 252.384 566.543
C 252.906 558.616 252.382 550.447 252.342 542.497
C 252.265 527.499 252.238 512.501 252.274 497.503
C 252.29 491.003 252.294 484.503 252.275 478.003
C 252.269 475.853 252.998 472.048 252.029 470.087
C 250.884 467.772 247.33 465.641 245.39 463.966
C 240.495 459.741 235.826 455.227 231.022 450.899
C 230.543 449.869 230.787 448.339 230.781 447.22
C 230.764 444.314 230.796 441.406 230.781 438.5
C 230.749 431.868 230.792 425.238 230.806 418.606
C 230.813 415.148 230.385 411.425 230.841 408
C 232.443 406.981 234.291 405.724 234.881 403.792
C 236.131 399.698 233.304 394.83 228.645 395.309
C 224.164 395.771 221.04 400.692 223.072 404.903
C 224 406.826 225.603 407.486 227.404 408.294
C 227.77 409.038 227.392 410.368 227.399 411.203
C 227.422 413.969 227.378 416.737 227.381 419.503
C 227.387 426.672 227.418 433.84 227.42 441.008
C 227.421 444.657 226.828 448.979 227.818 452.525
C 229.381 454.859 232.149 456.621 234.254 458.452
C 236.856 460.716 239.262 463.201 241.864 465.467
C 244.124 467.435 246.877 469.334 248.796 471.636
C 249.264 478.864 248.834 486.247 248.851 493.493
C 248.889 508.831 248.866 524.169 248.947 539.507
C 248.98 545.708 249.006 551.908 249.063 558.108
C 249.088 560.798 248.586 564.093 249.207 566.706
C 246.966 566.298 244.445 566.861 242.157 566.68
C 241.683 547.476 242.216 528.212 242.15 508.999
C 242.132 503.743 242.079 498.482 242.181 493.226
C 242.232 490.591 242.807 487.06 241.978 484.524
C 241.287 482.411 238.115 480.596 236.515 479.159
C 232.454 475.511 228.529 471.672 224.301 468.216
C 222.831 467.015 221.411 465.766 219.96 464.545
C 219.331 464.016 218.483 463.764 218.083 463.044
C 219.205 460.717 220.167 457.87 218.885 455.335
C 218.339 454.255 216.48 452.804 216.476 451.61
C 216.449 442.12 217.622 432.236 216.619 422.782
C 217.39 421.492 219.058 421.612 219.514 419.773
C 221.115 413.306 210.384 412.474 210.8 419.06
C 210.857 419.967 211.033 420.779 211.478 421.576
C 211.875 422.024 212.501 422.125 213.047 422.332
C 213.349 422.756 213.15 423.814 213.141 424.349
C 213.109 426.231 213.112 428.117 213.126 429.999
C 213.162 434.666 213.158 439.332 213.2 443.999
C 213.222 446.412 212.991 448.973 213.414 451.356
C 207.214 451.044 202.004 457.904 207.046 463.013
C 207.714 463.69 208.517 464.259 209.374 464.669
C 211.496 465.684 213.94 465.372 216.134 464.872
C 222.463 472.512 231.115 478.324 238.272 485.226
C 239.074 486.593 238.431 489.919 238.42 491.51
C 238.384 496.671 238.314 501.831 238.295 506.992
C 238.246 520.325 238.268 533.659 238.286 546.992
C 238.295 553.342 237.494 560.26 238.343 566.549
C 238.294 566.74 236.651 566.611 236.448 566.615
C 234.412 566.656 232.364 566.524 230.334 566.588
C 230.815 553.949 230.155 541.157 230.18 528.5
C 230.187 524.835 230.201 521.169 230.209 517.504
C 230.213 516.102 230.567 514.155 229.976 512.849
C 229.042 510.784 226.228 508.957 224.597 507.425
C 220.419 503.502 215.969 499.685 211.99 495.582
C 212.334 493.177 213.41 491.145 212.203 488.727
C 210.79 485.896 204.914 483.188 202.549 486.418
C 201.966 486.9 200.746 488.734 200.951 487.029
C 202.232 483.324 201.303 478.341 201.289 474.461
C 201.257 465.644 201.301 456.822 201.34 448.004
C 201.29 432.171 201.289 416.338 201.273 400.504
C 201.265 392.378 201.729 384.092 201.173 375.985
C 201.674 362.517 200.903 348.954 200.946 335.495
C 201.557 328.219 200.688 320.787 201.035 313.485
C 201.146 311.157 200.443 307.685 201.362 305.523
C 202.582 302.651 206.044 300.064 207.964 297.598
C 210.878 293.857 212.852 289.003 213.962 284.417
C 219.102 284.072 224.351 284.421 229.503 284.421
C 240.337 284.42 251.17 284.421 262.004 284.388
C 266.232 284.375 270.467 284.297 274.694 284.369
C 275.959 284.39 277.243 284.38 278.505 284.468
C 278.961 284.5 279.473 284.89 279.742 284.777 Z
M 213.843 301.512
C 213.051 303.502 213.582 306.438 213.58 308.547
C 213.577 313.697 213.602 318.848 213.63 323.999
C 213.724 341.501 213.845 359.002 213.856 376.505
C 213.859 381.94 213.885 387.374 213.978 392.807
C 214.024 395.535 214.838 398.063 218.047 398.004
C 221.467 397.941 222.723 395.404 222.84 392.365
C 223.06 386.703 223.142 381.049 223.121 375.381
C 223.062 359.586 222.842 343.799 222.828 328.003
C 222.823 322.336 222.849 316.67 222.83 311.003
C 222.821 308.221 223.07 305.315 222.698 302.551
C 222.096 298.071 215.504 297.335 213.843 301.512 Z
M 234.936 302.07
C 234.044 306.435 234.742 311.55 234.754 315.999
C 234.778 324.999 234.76 333.999 234.758 342.999
C 234.756 354.332 234.751 365.666 234.815 376.999
C 234.845 382.466 234.576 388.051 234.959 393.504
C 235.139 396.07 235.998 398.5 236.189 401.012
C 236.518 405.316 234.961 409.713 235.493 414.027
C 235.665 415.416 236.174 416.693 237.077 417.767
C 239.001 420.054 242.331 421.282 245.185 419.975
C 248.569 418.425 250.159 413.594 247.577 410.643
C 246.725 409.671 245.704 409.088 244.594 408.466
C 243.657 406.785 244.246 403.419 244.237 401.502
C 244.207 395.745 244.127 389.989 244.092 384.232
C 243.965 363.492 243.874 342.744 243.882 321.998
C 243.884 317.56 243.857 313.121 243.903 308.684
C 243.926 306.424 244.284 303.786 243.668 301.586
C 242.96 299.057 239.581 297.983 237.338 299.087
C 236.114 299.69 235.502 300.908 234.936 302.07 Z
M 268.906 380.091
C 268.09 385.373 276.627 387.06 277.574 382.001
C 278.667 376.166 269.818 374.18 268.906 380.091 Z
M 289.341 421.534
C 289.078 423.002 289.816 424.426 291.387 424.634
C 294.28 424.321 294.474 420.242 291.504 419.852
C 290.534 420.131 289.89 420.699 289.341 421.534 Z"
opacity="1" fill="rgb(27,48,71)" fill-rule="evenodd" />
<path d="
M 202.646 497.302
C 203.761 497.642 204.722 498.292 205.931 498.281
C 207.15 498.27 208.407 497.362 209.569 497.688
C 214.249 504.099 221.787 508.059 226.772 514.186
C 227.194 517.883 226.77 521.774 226.801 525.496
C 226.876 534.329 226.808 543.161 226.758 551.994
C 226.74 555.328 226.787 558.662 226.753 561.995
C 226.739 563.458 226.416 565.347 226.826 566.753
C 223.63 566.408 220.219 566.763 216.999 566.737
C 215.985 566.728 214.181 567.118 213.317 566.616
C 213.166 556.565 213.594 546.482 213.317 536.437
C 215.307 535.549 216.783 534.351 217.585 532.246
C 218.917 528.748 216.538 525.039 213 524.368
C 208.342 523.486 204.142 527.68 205.491 532.392
C 206.132 534.632 208.068 535.71 209.863 536.918
C 209.373 543.542 209.869 550.352 209.83 556.997
C 209.813 559.92 209.048 563.966 209.836 566.766
C 207.108 566.653 204.359 566.749 201.626 566.674
C 201.057 565.656 201.506 562.78 201.428 561.512
C 201.131 545.021 201.369 528.496 201.371 512.001
C 201.372 508.193 201.424 504.385 201.386 500.578
C 201.381 500.134 201.128 497.453 201.539 497.219
C 201.861 497.036 202.277 497.274 202.646 497.302 Z"
opacity="1" fill="rgb(25,46,67)" fill-rule="evenodd" />
<path d="
M 203.761 489.273
C 204.295 488.863 204.782 488.429 205.46 488.29
C 209.724 487.418 210.473 495.136 205.596 494.354
C 204.956 494.251 204.502 493.887 204.022 493.483
C 202.854 492.108 202.51 490.69 203.761 489.273 Z"
opacity="1" fill="rgb(19,35,54)" fill-rule="evenodd" />
<path d="
M 208.902 457.568
C 209.025 457.091 209.192 456.746 209.463 456.333
C 211.843 453.709 216.787 455.895 215.308 459.546
C 213.727 463.45 208.784 461.17 208.902 457.568 Z"
opacity="1" fill="rgb(22,40,58)" fill-rule="evenodd" />
<path d="
M 208.978 530.62
C 209.25 526.534 215.1 527.499 214.061 531.416
C 212.902 533.64 209.164 533.345 208.978 530.62 Z"
opacity="1" fill="rgb(22,38,58)" fill-rule="evenodd" />
<path d="
M 267.921 268.858
C 268.671 271.597 271.996 274.451 273.802 276.624
C 274.625 277.613 274.795 278.769 276.009 279.121
C 261.722 279.571 247.305 278.937 233.003 278.91
C 228.836 278.902 224.668 278.887 220.501 278.884
C 218.983 278.882 216.531 279.308 215.175 278.675
C 215.232 276.457 215.245 274.227 215.167 272.009
C 215.132 271.014 214.804 269.674 215.35 268.865
C 227.542 268.382 239.801 268.749 252.004 268.705
C 255.671 268.691 259.338 268.69 263.005 268.701
C 264.483 268.705 266.541 268.348 267.921 268.858 Z"
opacity="1" fill="rgb(28,49,72)" fill-rule="evenodd" />
<path d="
M 226.394 400.559
C 227.557 396.614 233.227 398.741 232.147 402.335
C 230.983 406.209 225.372 404.029 226.394 400.559 Z"
opacity="1" fill="rgb(28,46,67)" fill-rule="evenodd" />
<path d="
M 262.948 784.041
C 257.854 776.007 251.734 768.455 246.071 760.814
C 244.115 758.176 242.179 755.516 240.247 752.862
C 239.567 751.928 238.849 751.045 238.118 750.15
C 237.922 749.91 237.723 749.673 237.521 749.438
C 237.404 749.303 237.229 748.876 237.161 749.041
C 236.791 749.947 237.145 751.97 237.155 752.999
C 237.181 755.997 237.164 758.999 237.172 761.998
C 237.19 769 237.206 776.002 237.22 783.003
C 237.227 786.541 236.959 790.213 237.239 793.735
C 234.906 793.657 232.516 793.587 230.183 793.668
C 229.455 790.345 229.947 786.389 229.946 782.998
C 229.943 776.165 229.938 769.332 229.931 762.5
C 229.927 758.498 229.941 754.496 229.951 750.494
C 230.053 745.991 229.939 741.49 230 736.995
C 231.598 736.186 234.365 736.626 236.137 736.651
C 237.476 738.933 239.411 740.935 240.982 743.065
C 244.628 748.006 248.25 752.969 251.949 757.869
C 257.726 765.519 262.905 773.944 269.202 781.164
C 269.027 778.824 269.333 776.352 269.35 773.998
C 269.388 768.498 269.337 762.998 269.368 757.499
C 269.406 750.674 268.781 743.428 269.593 736.659
C 271.832 736.591 274.079 736.627 276.32 736.536
C 275.613 748.099 276.345 759.905 276.306 771.496
C 276.29 776.497 276.277 781.497 276.275 786.498
C 276.274 788.846 275.957 791.464 276.316 793.78
C 274.341 793.567 271.447 794.254 269.653 793.364
C 267.249 790.451 265.026 787.197 262.948 784.041 Z"
opacity="1" fill="rgb(25,43,63)" fill-rule="evenodd" />
<path d="
M 250.506 217.788
C 252.827 217.826 255.174 217.9 257.493 217.858
C 261.201 217.7 264.945 217.725 268.655 217.851
C 269.649 217.884 271.714 217.514 272.309 218.478
C 272.017 221.431 272.764 224.714 272.774 227.717
C 272.777 228.617 273.003 230.46 272.528 231.229
C 264.563 230.499 256.47 231.321 248.482 230.98
C 247.809 230.421 248.058 228.778 248.038 227.97
C 247.987 225.838 248.046 223.721 248.119 221.59
C 248.165 220.263 247.954 219.2 248.942 218.229
C 249.486 218.116 249.976 217.937 250.506 217.788 Z"
opacity="1" fill="rgb(35,61,87)" fill-rule="evenodd" />
<path d="
M 256.489 236.804
C 259.323 236.731 262.167 236.905 264.998 236.761
C 264.215 237.217 263.599 238.627 263.184 239.433
C 262.012 241.71 260.561 243.811 259.595 246.196
C 259.351 246.726 259.097 247.493 258.487 247.671
C 257.99 247.693 257.495 247.694 256.997 247.695
C 256.132 247.229 256.17 246.269 256.111 245.39
C 255.977 243.417 255.833 241.433 255.788 239.457
C 255.767 238.582 255.583 237.291 256.489 236.804 Z"
opacity="1" fill="rgb(68,85,104)" fill-rule="evenodd" />
<path d="
M 264.998 236.761
C 283.16 236.627 301.337 236.695 319.499 236.83
C 329.342 236.903 339.988 235.644 349.43 238.988
C 364.949 244.485 376.737 259.217 375.846 276.114
C 375.65 279.837 374.471 283.402 373.171 286.864
C 369.212 296.762 361.595 303.39 352.303 308.008
C 348.824 309.148 345.598 310.018 341.963 310.53
C 325.041 311.592 309.381 299.636 305.034 283.435
C 303.255 276.808 304.999 270.443 304.736 263.816
C 291.191 263.337 277.573 263.849 264.021 263.772
C 262.153 261.848 260.902 258.318 259.524 255.987
C 258.884 254.904 258.111 254.006 258.477 252.724
C 262.416 252.313 266.539 252.595 270.502 252.557
C 279.005 252.474 287.498 252.457 296.001 252.442
C 301.509 252.433 307 252.626 312.506 252.68
C 315.311 252.707 318.493 252.262 321.246 252.781
C 321.406 253.01 320.474 253.649 320.301 253.82
C 319.447 254.666 318.571 255.515 317.796 256.437
C 315.652 258.988 314.146 262.047 313.076 265.188
C 309.963 274.328 311.652 284.439 317.758 291.953
C 327.003 303.328 345.743 304.868 357.002 295.62
C 364.804 289.213 368.312 278.479 366.394 268.64
C 364.081 256.775 354.366 249.267 342.929 246.996
C 338.204 246.057 333.476 246.87 328.74 247.256
C 324.667 247.587 320.583 247.608 316.499 247.626
C 297.178 247.711 277.802 247.281 258.487 247.671
C 259.097 247.493 259.351 246.726 259.595 246.196
C 260.561 243.811 262.012 241.71 263.184 239.433
C 263.599 238.627 264.215 237.217 264.998 236.761 Z"
opacity="1" fill="rgb(108,121,137)" fill-rule="evenodd" />
<path d="
M 267.921 268.858
C 270.295 268.141 273.218 268.565 275.685 268.539
C 280.632 268.486 285.583 268.411 290.535 268.394
C 292.358 268.388 294.181 268.385 296.004 268.384
C 296.841 268.384 298.072 268.17 298.836 268.498
C 298.588 271.674 298.253 275.695 298.825 278.827
C 291.238 278.583 283.601 279.151 276.009 279.121
C 274.795 278.769 274.625 277.613 273.802 276.624
C 271.996 274.451 268.671 271.597 267.921 268.858 Z"
opacity="1" fill="rgb(78,94,114)" fill-rule="evenodd" />
<path d="
M 299.983 217.905
C 303.982 218.428 308.237 217.984 312.269 218.03
C 320.669 218.127 329.085 218.122 337.485 218.076
C 342.822 218.055 348.16 218.023 353.497 217.998
C 355.846 217.986 358.832 217.485 361.107 218.118
C 362.963 218.634 364.322 221.586 364.122 223.374
C 363.439 225.981 362.84 229.264 360.301 230.78
C 358.69 231.742 356.285 231.197 354.502 231.181
C 350.168 231.142 345.831 231.207 341.497 231.229
C 326.331 231.307 311.165 231.244 295.999 231.266
C 288.32 231.277 280.154 232.092 272.528 231.229
C 273.003 230.46 272.777 228.617 272.774 227.717
C 272.764 224.714 272.017 221.431 272.309 218.478
C 273.188 217.283 277.49 218.049 279 218.045
C 285.936 218.026 293.098 217.583 299.983 217.905 Z"
opacity="1" fill="rgb(167,172,176)" fill-rule="evenodd" />
<path d="
M 286.133 322.516
C 286.653 321.127 286.378 319.45 286.378 317.995
C 286.38 315.16 286.407 312.324 286.427 309.489
C 286.434 308.66 286.427 307.831 286.405 307.003
C 286.362 306.094 286.241 301.721 285.957 302.487
C 285.851 301.646 285.463 301.191 284.958 300.534
C 286.279 299.95 284.758 297.426 284.4 296.524
C 283.499 294.256 282.578 291.966 281.501 289.775
C 280.756 288.258 279.653 286.497 279.742 284.777
C 281.11 284.307 282.691 284.456 284.13 284.405
C 287.429 284.289 290.746 284.352 294.047 284.358
C 295.314 284.36 298.084 283.774 299.103 284.368
C 300.724 289.277 302.128 293.803 305.395 297.945
C 306.844 299.783 308.459 301.558 310.03 303.292
C 310.787 304.128 311.813 305.029 312.108 306.157
C 312.968 309.45 312.292 313.611 312.274 316.992
C 312.237 323.995 312.278 330.998 312.363 337.999
C 311.828 367.704 312.691 397.431 312.093 427.129
C 313.188 428.409 315.363 428.722 316.619 430.014
C 319.729 433.211 318.264 437.932 315.287 440.556
C 314.204 441.511 312.288 441.872 311.515 443.032
C 311.424 447.734 311.56 452.472 311.58 457.193
C 311.588 459.116 312.171 461.885 311.521 463.712
C 311.177 464.677 309.862 465.482 309.103 466.111
C 307.216 467.674 305.304 469.226 303.48 470.862
C 296.312 477.287 289.144 483.714 281.913 490.063
C 281.16 491.566 281.618 494.3 281.606 495.992
C 281.571 500.958 281.555 505.923 281.574 510.888
C 281.625 523.6 281.566 536.301 281.656 549.02
C 281.684 553.011 281.708 557.001 281.708 560.992
C 281.708 562.775 281.414 564.902 281.772 566.641
C 280.646 566.58 279.49 566.624 278.36 566.635
C 277.616 565.284 278.119 563.234 278.007 561.71
C 277.638 556.679 277.924 551.547 277.907 546.504
C 277.864 533.17 277.784 519.837 277.814 506.504
C 277.824 502.545 277.845 498.586 277.836 494.627
C 277.831 492.687 277.514 490.385 278.018 488.506
C 279.998 486.214 282.791 484.45 285.042 482.414
C 289.952 477.972 294.8 473.449 299.764 469.069
C 302.344 466.793 305.389 464.759 307.772 462.3
C 308.309 459.868 307.911 456.991 307.907 454.505
C 307.902 450.625 308.196 446.66 308.003 442.795
C 306.328 441.6 304.445 440.395 303.45 438.521
C 301.044 433.993 303.791 428.96 308.268 427.245
C 308.584 426.57 308.338 425.442 308.341 424.691
C 308.347 422.795 308.291 420.9 308.276 419.004
C 308.221 412.171 308.227 405.337 308.165 398.504
C 307.954 375.167 308.095 351.83 308.061 328.497
C 308.053 323.069 308.065 317.641 308.085 312.213
C 308.094 309.669 308.615 306.477 307.955 304.008
C 307.476 302.216 304.979 300.338 303.382 299.595
C 301.026 298.498 297.195 299.294 296.379 302.067
C 295.982 303.418 296.233 305.109 296.233 306.502
C 296.233 309.335 296.241 312.169 296.246 315.003
C 296.268 330.001 296.26 345.001 296.324 359.999
C 296.342 364.305 296.359 368.611 296.383 372.917
C 296.393 374.635 295.912 377.278 296.53 378.869
C 298.99 380.408 301.091 382.645 301.633 385.589
C 303 393.022 297.138 402.203 288.824 399.191
C 283.793 397.368 280.906 392.775 281.82 387.481
C 282.19 385.341 283.13 383.316 284.173 381.423
C 284.801 380.283 285.932 379.294 286.067 377.947
C 286.54 373.211 286.166 368.26 286.209 363.5
C 286.332 349.847 285.801 336.162 286.133 322.516 Z
M 284.858 386.562
C 283.702 391.925 288.95 396.199 294.048 394.445
C 296.486 393.607 298.135 391.205 298.628 388.763
C 299.579 384.063 294.747 379.81 290.085 380.861
C 287.583 381.425 285.384 384.119 284.858 386.562 Z
M 306.293 433.532
C 304.82 438.914 313.095 441.245 314.432 435.847
C 315.746 430.544 307.769 428.137 306.293 433.532 Z"
opacity="1" fill="rgb(49,72,94)" fill-rule="evenodd" />
<path d="
M 285.957 302.487
C 286.241 301.721 286.362 306.094 286.405 307.003
C 286.427 307.831 286.434 308.66 286.427 309.489
C 286.407 312.324 286.38 315.16 286.378 317.995
C 286.378 319.45 286.653 321.127 286.133 322.516
C 286.313 315.83 286.068 309.162 285.957 302.487 Z"
opacity="1" fill="rgb(54,67,104)" fill-rule="evenodd" />
<path d="
M 286.964 493.087
C 287.001 492.462 286.915 492.78 287.294 492.155
C 289.498 490.29 293.15 490.094 294.573 493.198
C 295.148 494.451 294.5 496.17 294.021 497.351
C 293.505 497.956 292.8 498.291 292.276 498.894
C 292.271 500.834 292.047 502.688 292.323 504.629
C 292.72 504.681 293.308 503.884 293.576 503.621
C 294.738 502.482 295.786 501.224 296.924 500.06
C 301.38 495.501 305.274 489.85 310.132 485.749
C 310.304 485.136 309.319 483.907 309.129 483.28
C 308.589 481.492 308.801 479.514 309.709 477.881
C 313.171 471.66 322.112 475.727 320.506 482.365
C 320.233 483.491 319.651 484.426 318.879 485.274
C 317.032 487.302 315.302 486.643 313.12 487.501
C 307.348 495.618 299.451 502.546 292.304 509.436
C 291.774 510.594 292.098 512.504 292.1 513.79
C 292.106 517.357 292.178 520.924 292.178 524.492
C 292.178 534.158 292.188 543.825 292.166 553.491
C 292.16 556.492 292.13 559.494 292.135 562.495
C 292.136 563.756 291.917 565.493 292.27 566.684
C 291.177 566.606 290.026 566.605 288.936 566.583
C 288.693 551.063 288.84 535.528 288.782 520.005
C 288.764 515.415 288.732 510.823 288.728 506.234
C 288.725 503.48 288.981 500.525 288.572 497.799
C 287.511 496.075 287.122 495.222 286.964 493.087 Z
M 312.385 479.541
C 312.015 480.586 312.066 481.653 312.58 482.637
C 312.975 483.064 313.353 483.364 313.91 483.553
C 319.155 485.336 318.456 476.736 313.975 478.208
C 313.274 478.438 312.83 478.991 312.385 479.541 Z"
opacity="1" fill="rgb(39,58,76)" fill-rule="evenodd" />
<path d="
M 288.81 386.456
C 290.628 382.641 296.534 385.614 294.745 389.335
C 293.105 392.745 287.114 390.016 288.81 386.456 Z"
opacity="1" fill="rgb(46,65,85)" fill-rule="evenodd" />
<path d="
M 312.689 521.701
C 311.962 522.994 311.188 524.103 310.104 525.11
C 309.54 525.633 308.581 526.323 308.456 527.126
C 307.157 527.718 306.02 528.613 304.863 529.433
C 304.408 530.486 304.687 532.154 304.673 533.325
C 304.642 535.815 304.456 538.286 304.457 540.775
C 304.462 549.4 303.926 558.251 304.721 566.847
C 303.578 566.668 302.348 566.768 301.19 566.743
C 300.787 563.917 301.144 560.866 301.134 558.008
C 301.115 552.451 301.004 546.895 300.95 541.339
C 300.924 538.608 301.051 535.886 301.054 533.158
C 301.055 531.681 300.813 529.872 301.292 528.451
C 301.646 527.403 302.768 526.541 303.558 525.824
C 305.369 524.182 307.121 522.443 308.964 520.844
C 309.021 520.308 307.008 518.994 306.608 518.396
C 305.516 516.767 305.216 514.697 305.68 512.801
C 307.677 504.631 319.949 508.445 317.568 516.446
C 316.856 518.834 314.488 520.205 312.689 521.701 Z
M 308.883 513.563
C 307.796 517.362 313.578 518.954 314.712 515.303
C 315.89 511.512 310.047 509.5 308.883 513.563 Z"
opacity="1" fill="rgb(41,58,76)" fill-rule="evenodd" />
<path d="
M 344.617 746.493
C 344.668 743.219 344.62 739.944 344.663 736.671
C 346.744 736.064 349.296 736.391 351.448 736.469
C 352.052 754.551 351.965 772.879 351.786 790.995
C 351.796 791.899 351.677 792.906 351.848 793.79
C 349.842 793.688 347.782 793.824 345.795 793.529
C 345.262 793.286 344.955 792.865 344.559 792.446
C 334.156 777.842 322.838 763.897 312.353 749.376
C 311.688 753.544 312.245 758.267 312.259 762.498
C 312.292 772.895 312.83 783.47 312.272 793.847
C 309.917 793.594 307.415 793.722 305.046 793.761
C 305.123 792.346 305.018 790.911 304.982 789.494
C 305.228 783.532 305.197 777.458 304.973 771.495
C 305.111 762.991 304.922 754.495 304.931 745.991
C 304.933 743.828 304.949 741.664 304.931 739.501
C 304.922 738.42 304.752 737.424 305.482 736.587
C 307.267 736.288 309.152 736.49 310.955 736.533
C 314.833 740.221 317.818 745.6 321.018 749.897
C 328.76 760.299 336.286 771.097 344.609 781.034
C 344.888 775.044 344.651 769.001 344.639 763.003
C 344.628 757.51 344.856 751.982 344.617 746.493 Z"
opacity="1" fill="rgb(26,44,64)" fill-rule="evenodd" />
<path d="
M 312.689 521.701
C 312.383 523.566 312.672 525.57 312.67 527.459
C 312.668 530.903 312.561 534.344 312.519 537.788
C 312.404 547.387 311.888 557.124 312.641 566.703
C 311.712 567.166 309.779 566.656 308.726 566.617
C 308.357 556.257 308.897 545.853 308.467 535.497
C 308.352 532.737 308.869 529.847 308.456 527.126
C 308.581 526.323 309.54 525.633 310.104 525.11
C 311.188 524.103 311.962 522.994 312.689 521.701 Z"
opacity="1" fill="rgb(164,168,174)" fill-rule="evenodd" />
<path d="
M 317.458 270.594
C 317.935 267.477 319.218 264.44 320.985 261.846
C 324.299 256.981 330.119 252.745 336.047 252.043
C 350.108 250.378 363.066 263.61 360.792 277.487
C 360.277 280.631 359.129 283.715 357.402 286.39
C 355.995 288.568 354.118 290.426 352.028 291.951
C 340.755 300.181 324.073 295.218 318.74 282.407
C 317.183 278.667 316.847 274.583 317.458 270.594 Z
M 325.44 272.607
C 325.194 274.81 325.445 276.969 326.08 279.091
C 326.596 280.815 327.455 282.476 328.647 283.831
C 336.744 293.043 352.174 287.376 353.265 275.408
C 354.556 261.257 334.065 254.828 327.168 267.293
C 326.268 268.921 325.647 270.752 325.44 272.607 Z"
opacity="1" fill="rgb(101,117,134)" fill-rule="evenodd" />
<path d="
M 330.891 273.601
C 331.011 272.257 331.373 270.977 332.029 269.799
C 332.603 268.768 333.387 267.789 334.296 267.031
C 340.261 262.066 347.925 269.166 347.213 275.661
C 346.614 281.131 340.632 284.409 335.633 282.133
C 332.447 280.682 330.586 277.019 330.891 273.601 Z"
opacity="1" fill="rgb(100,115,132)" fill-rule="evenodd" />
<path d="
M 381.401 405.422
C 382.926 403.901 384.121 402.069 385.639 400.527
C 391.438 394.634 397.944 389.033 405.3 385.165
C 409.477 382.969 413.748 381.187 418.218 379.686
C 420.191 379.023 422.647 378.967 424.483 378.014
C 428.993 377.388 433.427 376.434 437.994 376.246
C 444.702 376.034 451.281 375.957 457.99 376.46
C 462.377 376.859 466.688 377.567 471.041 378.222
C 480.668 379.831 490.439 382.058 499.456 385.853
C 499.92 386.58 499.643 387.943 499.613 388.775
C 499.527 391.184 499.434 393.595 499.404 396.006
C 499.328 402.003 499.318 408 499.293 413.998
C 499.282 416.877 498.995 419.922 499.272 422.782
C 498.044 422.76 496.295 423.175 495.191 422.62
C 494.773 415.152 492.407 406.568 487.514 400.753
C 481.806 393.967 472.968 390.061 464.675 387.553
C 444.827 381.55 421.984 385.485 407.868 401.438
C 405.16 404.497 402.203 407.979 400.549 411.752
C 398.549 414.479 397.372 418.026 396.142 421.148
C 392.434 430.561 391.082 440.96 391.549 451.014
C 392.164 463.546 395.359 475.921 401.421 486.946
C 410.226 502.957 427.931 514.503 445.984 516.642
C 454 517.592 461.839 516.954 469.498 514.312
C 472.382 513.317 475.898 512.121 478.041 509.853
C 479.372 507.026 478.555 502.591 478.558 499.54
C 478.568 491.372 478.509 483.191 478.436 475.02
C 478.405 471.53 478.951 466.7 476.499 463.842
C 472.225 458.861 465.796 460.347 460.211 459.329
C 460.103 458.033 460.153 456.762 460.098 455.467
C 461.936 454.939 464.345 455.322 466.264 455.328
C 470.345 455.34 474.425 455.326 478.506 455.334
C 486.673 455.349 494.84 455.315 503.007 455.297
C 507.026 455.288 511.134 455.009 515.139 455.27
C 515.783 456.273 515.412 458.219 515.342 459.363
C 513.389 459.28 511.341 459.285 509.42 459.69
C 501.013 461.466 501.763 470.966 501.738 477.501
C 501.692 489.223 502.513 501.202 501.811 512.892
C 500.543 514.144 498.705 514.901 497.136 515.697
C 493.685 517.448 490.01 518.804 486.369 520.101
C 476.705 522.595 467.42 524.874 457.479 526.104
C 448.856 526.521 440.18 526.718 431.614 525.474
C 426.664 524.756 421.95 523.365 417.114 522.16
C 415.904 521.518 414.427 521.107 413.114 520.722
C 406.838 517.603 400.409 515.121 394.718 510.879
C 391.523 508.498 388.517 505.799 385.767 502.917
C 384.209 501.285 382.86 499.306 381.127 497.863
C 378.659 494.478 376.557 490.796 374.093 487.441
C 373.166 485.298 372.161 483.026 371.047 480.978
C 364.277 462.361 363.15 443.082 370.509 424.422
C 372.517 419.33 375.186 414.482 378.174 409.905
C 379.18 408.364 380.481 407.018 381.401 405.422 Z"
opacity="1" fill="rgb(28,55,82)" fill-rule="evenodd" />
<path d="
M 381.008 736.266
C 382.294 736.261 383.583 736.254 384.869 736.273
C 385.176 736.277 385.715 736.136 385.886 736.417
C 385.72 749.775 385.944 763.15 385.94 776.51
C 385.939 782.271 386.3 788.173 385.893 793.916
C 383.753 793.84 381.607 793.887 379.465 793.848
C 378.504 793.784 378.885 791.281 378.883 790.503
C 378.853 776.671 378.923 762.833 378.941 749
C 378.945 745.822 378.967 742.642 378.91 739.464
C 378.901 738.965 378.683 736.736 379.111 736.401
C 379.249 736.293 380.728 736.283 381.008 736.266 Z"
opacity="1" fill="rgb(26,44,63)" fill-rule="evenodd" />
<path d="
M 417.367 741.377
C 425.313 734.525 437.041 733.497 446.4 738.26
C 448.568 739.364 452.898 741.096 453.879 743.483
C 453.519 744.832 452.155 745.815 451.365 746.927
C 451.036 747.39 450.882 748.044 450.467 748.425
C 448.585 747.33 446.949 745.855 445.031 744.801
C 440.375 742.241 434.241 741.212 429.011 742.412
C 422.984 743.796 417.042 750.544 422.176 756.369
C 424.65 759.177 427.978 760.086 431.463 760.962
C 439.42 762.962 451.74 764.247 454.888 773.345
C 458.465 783.68 449.96 792.562 440.345 794.492
C 433.084 795.949 424.681 795.008 418.104 791.562
C 415.5 790.197 413.42 788.233 411.047 786.543
C 412.024 784.624 413.395 782.56 414.934 781.05
C 416.365 782.049 417.471 783.419 418.987 784.314
C 425.305 788.045 432.514 789.507 439.759 788.051
C 445.268 786.943 450.464 781.848 447.582 775.806
C 445.564 771.576 440.681 770.916 436.632 769.766
C 427.336 767.125 413.647 765.129 413.181 752.928
C 413.119 751.323 413.134 749.669 413.518 748.102
C 414.168 745.454 415.663 743.429 417.367 741.377 Z"
opacity="1" fill="rgb(25,43,63)" fill-rule="evenodd" />
<path d="
M 544.467 737.559
C 548.294 739.661 551.511 741.478 553.501 745.603
C 558.047 755.029 554.067 769.697 542.235 770.874
C 547.329 778.614 552.027 786.616 557.297 794.218
C 554.416 793.895 551.228 794.67 548.417 793.925
C 547.727 792.99 547.26 791.898 546.582 790.948
C 544.45 786.427 541.454 782.232 538.889 777.948
C 537.753 776.049 536.728 773.206 535.094 771.732
C 529.431 771.346 523.416 771.342 517.754 771.747
C 517.737 776.591 517.738 781.433 517.786 786.278
C 517.81 788.771 518.198 791.689 517.763 794.139
C 515.451 794.108 513.127 794.039 510.818 794.111
C 511.07 780.094 510.793 766.026 510.8 752.003
C 510.801 748.336 510.827 744.669 510.823 741.001
C 510.822 739.749 510.418 737.673 511.157 736.621
C 515.852 735.934 520.769 736.278 525.505 736.282
C 531.889 736.286 538.249 735.954 544.467 737.559 Z
M 518.028 744.134
C 517.628 751.137 517.509 758.397 517.934 765.404
C 523.207 765.056 528.565 765.445 533.849 765.401
C 536.542 765.379 539.375 765.575 541.93 764.561
C 548.49 761.958 550.547 751.983 546.037 746.597
C 541.403 741.062 532.046 742.934 525.701 742.913
C 523.858 742.906 519.506 742.302 518.103 743.54
C 518.078 743.738 518.053 743.936 518.028 744.134 Z"
opacity="1" fill="rgb(25,42,63)" fill-rule="evenodd" />
<path d="
M 618.988 394.013
C 623.225 399.259 626.039 405.249 626.703 412.029
C 627.004 415.991 626.927 419.958 626.391 423.896
C 625.246 427.339 624.642 430.785 623.08 434.131
C 619.386 442.049 612.914 448.222 605.398 452.527
C 602.919 453.948 599.622 456.088 596.766 456.426
C 599.429 460.594 602.578 464.572 605.404 468.658
C 610.816 476.485 616.025 484.581 621.885 492.084
C 625.472 497.523 629.672 502.652 633.756 507.721
C 639.377 514.699 645.519 521.838 652.512 527.494
C 660.294 533.898 668.255 540.212 678.229 542.795
C 680.37 543.349 682.549 543.029 684.708 543.318
C 685.036 544.479 684.823 545.811 684.82 547
C 684.536 547.394 683.151 547.24 682.711 547.267
C 680.574 547.397 678.426 547.443 676.286 547.521
C 667.066 547.852 658.341 547.225 649.53 544.292
C 630.621 537.999 617.82 524.01 606.749 508.079
C 599.803 498.083 593.383 487.81 587.001 477.446
C 583.971 472.524 581.404 467.07 577.956 462.442
C 576.22 461.56 573.42 462.099 571.513 462.049
C 566.61 461.92 561.673 461.578 556.769 461.806
C 555.786 474.222 556.528 487.055 556.704 499.506
C 556.787 505.373 556.543 511.902 561.151 516.3
C 564.859 519.84 570.048 519.233 574.759 519.519
C 574.82 520.637 575.366 522.58 574.632 523.514
C 567.391 524.444 559.818 522.697 552.513 523.354
C 544.395 522.977 536.127 523.165 527.997 523.343
C 523.79 523.435 519.107 524.055 514.945 523.436
C 514.576 522.327 514.681 520.989 514.796 519.842
C 516.601 518.907 519.161 519.463 521.145 519.273
C 525.591 518.846 529.586 516.33 531.479 512.184
C 533.161 508.502 533.232 504.259 533.382 500.29
C 533.651 493.199 533.359 486.067 533.348 478.973
C 533.316 459.149 533.337 439.326 533.322 419.502
C 533.318 413.669 533.324 407.837 533.312 402.004
C 533.304 398.497 533.596 394.722 532.502 391.337
C 530.138 384.015 521.749 383.705 515.29 383.692
C 515.121 382.274 515.302 380.831 515.42 379.416
C 518.733 379.047 522.257 379.418 525.591 379.49
C 531.393 379.614 537.206 379.649 543.008 379.632
C 554.684 379.598 566.364 379.213 578.038 379.496
C 584.89 379.662 591.514 379.756 598.167 381.591
C 605.919 383.728 613.88 387.574 618.988 394.013 Z
M 556.901 389.372
C 556.296 391.444 556.626 393.957 556.651 396.1
C 556.698 400.233 556.633 404.368 556.649 408.502
C 556.705 422.993 557.364 437.705 556.749 452.171
C 559.724 452.673 562.992 452.435 566.004 452.439
C 571.064 452.446 576.015 452.505 580.964 451.336
C 583.359 450.771 585.639 449.902 587.782 448.693
C 598.988 442.368 602.979 430.778 602.467 418.434
C 602.174 411.36 600.279 404.233 595.786 398.629
C 589.468 390.749 579.49 388.662 569.931 388.549
C 567.264 388.517 564.606 388.573 561.94 388.633
C 560.23 388.672 558.462 388.582 556.901 389.372 Z"
opacity="1" fill="rgb(28,53,79)" fill-rule="evenodd" />
<path d="
M 579.487 754.49
C 581.379 750.022 583.164 746.003 586.77 742.604
C 599.352 730.744 620.095 733.703 628.838 748.653
C 634.907 759.031 634.273 771.916 628.654 782.278
C 626.037 785.876 623.297 789.246 619.358 791.51
C 605.894 799.246 588.811 793.835 581.394 780.583
C 577.045 772.812 577.15 762.856 579.487 754.49 Z
M 585.418 760.593
C 584.196 769.19 586.266 779.413 593.591 784.868
C 601.391 790.676 613.629 789.472 620.211 782.401
C 623.421 778.951 625.106 774.483 625.79 769.893
C 626.98 761.916 625.172 752.428 618.953 746.877
C 617.039 745.169 614.792 743.658 612.388 742.742
C 610.442 742.001 608.318 741.748 606.249 741.704
C 595.083 741.471 586.946 749.84 585.418 760.593 Z"
opacity="1" fill="rgb(22,43,64)" fill-rule="evenodd" />
<path d="
M 643.643 261.869
C 648.096 249.252 660.394 240.521 673.134 237.664
C 679.102 236.325 685.427 236.705 691.502 236.699
C 700.838 236.69 710.172 236.686 719.507 236.613
C 725.367 236.567 731.296 236.776 737.144 236.45
C 743.319 236.106 749.599 236.457 755.779 236.523
C 757.394 236.54 759.009 236.608 760.623 236.617
C 761.316 236.621 761.862 236.997 762.395 236.65
C 761.067 238.804 761.801 243.012 761.817 245.506
C 761.82 246.037 762.196 247.247 761.988 247.686
C 742.162 247.27 722.311 247.495 702.48 247.375
C 696.486 247.338 690.493 247.304 684.5 247.23
C 679.576 247.17 674.768 246.949 669.95 248.15
C 656.057 251.613 647.134 267.638 651.037 281.366
C 652.516 286.564 655.161 291.097 659.224 294.699
C 670.943 305.09 690.075 303.101 699.478 290.657
C 705.179 283.112 706.419 272.944 703.357 264.124
C 702.298 261.072 700.543 258.419 698.309 256.107
C 697.463 255.232 696.627 254.391 695.667 253.639
C 695.537 253.538 694.542 252.948 694.999 252.66
C 695.839 252.13 698.041 252.577 699.012 252.602
C 702.337 252.686 705.679 252.572 709.006 252.565
C 721.625 252.537 734.25 252.597 746.864 252.429
C 750.648 252.379 754.446 252.413 758.231 252.462
C 759.222 252.474 761.2 252.077 761.885 252.933
C 761.308 255.333 761.893 258.457 761.963 260.93
C 761.984 261.677 761.843 263.365 762.473 263.827
C 758.713 264.097 754.779 263.736 750.999 263.732
C 742.5 263.721 734 263.73 725.502 263.663
C 720.971 263.628 716.248 263.309 711.745 263.803
C 711.691 268.905 712.685 273.799 712.092 278.953
C 710.8 290.177 703.928 298.099 695.294 304.667
C 689.712 307.881 683.745 310.111 677.246 310.321
C 660.188 310.871 644.758 297.586 641.725 280.958
C 640.549 274.507 641.579 268.012 643.643 261.869 Z"
opacity="1" fill="rgb(28,64,98)" fill-rule="evenodd" />
<path d="
M 655.382 218.395
C 656.355 217.528 657.447 217.728 658.701 217.719
C 660.969 217.703 663.237 217.715 665.505 217.724
C 674.737 217.762 684.213 218.35 693.416 217.648
C 706.735 217.729 720.158 218.158 733.483 217.795
C 741.147 217.594 748.838 217.729 756.506 217.75
C 758.84 217.756 761.175 217.796 763.508 217.773
C 764.54 217.762 765.871 217.544 766.858 217.811
C 765.695 220.864 765.674 224.679 765.096 227.909
C 764.943 228.766 764.165 230.285 764.496 231.105
C 737.894 230.088 711.126 231.046 684.501 230.903
C 677.917 230.868 671.33 230.913 664.747 230.841
C 661.145 230.802 658.182 231.203 655.492 228.499
C 653.153 225.118 653.427 221.835 655.382 218.395 Z"
opacity="1" fill="rgb(29,70,105)" fill-rule="evenodd" />
<path d="
M 656.433 270.091
C 658.191 258.545 670.211 250.278 681.579 252.199
C 689.424 253.524 696.205 260.098 698.537 267.562
C 699.542 270.776 699.66 274.096 699.159 277.412
C 697.276 289.858 684.282 298.465 672.04 295.328
C 665.232 293.583 659.626 287.998 657.236 281.481
C 655.93 277.923 655.867 273.81 656.433 270.091 Z
M 663.922 271.588
C 663.535 273.6 663.677 275.664 664.108 277.657
C 664.491 279.424 665.221 281.202 666.231 282.704
C 673.121 292.953 689.134 288.329 691.531 276.864
C 691.941 274.899 691.955 272.875 691.569 270.903
C 689.999 262.871 680.861 258.37 673.299 260.798
C 668.517 262.333 664.864 266.685 663.922 271.588 Z"
opacity="1" fill="rgb(28,63,95)" fill-rule="evenodd" />
<path d="
M 697.164 747.984
C 697.452 744.094 696.963 740.17 697.203 736.295
C 699.583 736.262 702.041 736.103 704.414 736.318
C 703.697 746.283 704.439 756.514 704.435 766.506
C 704.433 772.527 704.711 778.773 701.501 784.143
C 698.717 788.799 694.992 791.129 690.347 793.574
C 686.64 794.55 683.027 795.027 679.186 794.921
C 676.753 794.853 674.203 794.489 671.877 793.763
C 669.932 793.155 668.096 792.314 666.394 791.192
C 656.318 784.554 657.342 772.62 657.377 762
C 657.399 755.333 657.331 748.664 657.409 741.998
C 657.432 740.251 657.312 738.456 657.602 736.73
C 658.937 735.654 662.975 736.354 664.677 736.361
C 665.047 737.2 664.721 738.59 664.693 739.497
C 664.621 741.828 664.703 744.174 664.71 746.507
C 664.733 753.67 664.623 760.834 664.643 767.999
C 664.655 772.513 664.455 777.215 666.709 781.288
C 672.021 790.886 689.051 790.998 694.814 781.706
C 697.488 777.396 697.267 772.239 697.257 767.362
C 697.245 760.909 697.43 754.431 697.164 747.984 Z"
opacity="1" fill="rgb(23,42,63)" fill-rule="evenodd" />
<path d="
M 768.007 629.517
C 765.553 629.348 762.96 629.345 760.506 629.519
C 737.065 628.832 713.469 629.494 690.004 629.58
C 683.75 629.602 677.496 629.659 671.242 629.657
C 669.339 629.656 665.996 630.32 664.436 629.062
C 663.706 628.079 663.433 626.855 663.137 625.687
C 662.1 621.602 661.609 614.263 666.914 612.728
C 669.794 611.895 673.7 612.423 676.692 612.435
C 682.797 612.459 688.901 612.444 695.005 612.435
C 736.505 612.369 778.004 612.311 819.504 612.301
C 826.81 612.299 834.115 612.333 841.421 612.33
C 844.461 612.328 848.91 611.584 851.719 612.899
C 856.141 614.969 856.024 620.62 855.134 624.698
C 854.787 626.287 854.264 628.289 852.887 629.296
C 850.375 629.988 847.104 629.455 844.506 629.456
C 838.671 629.46 832.837 629.456 827.003 629.461
C 807.371 629.479 787.627 628.908 768.007 629.517 Z"
opacity="1" fill="rgb(27,47,69)" fill-rule="evenodd" />
<path d="
M 669.483 274.104
C 669.882 265.51 681.471 262.435 685.059 270.781
C 685.62 272.086 685.768 273.519 685.716 274.927
C 685.391 283.652 673.139 285.584 670.036 277.42
C 669.646 276.394 669.432 275.202 669.483 274.104 Z"
opacity="1" fill="rgb(33,68,102)" fill-rule="evenodd" />
<path d="
M 837.494 597.502
C 837.952 600.044 837.278 604.731 834.326 605.735
C 831.962 606.538 828.955 606.15 826.496 606.18
C 820.832 606.249 815.165 606.172 809.5 606.165
C 777.666 606.126 745.832 606.157 713.998 606.212
C 707.665 606.222 701.332 606.25 694.999 606.247
C 691.689 606.246 687.974 606.713 684.723 605.996
C 681.895 605.372 680.306 602.68 679.924 600.013
C 679.61 596.87 680.972 592.855 684.235 591.794
C 686.394 591.091 689.25 591.736 691.506 591.743
C 697.006 591.762 702.505 591.767 708.005 591.763
C 739.671 591.74 771.336 591.81 803.002 591.818
C 811.336 591.82 819.67 591.746 828.004 591.736
C 832.404 591.73 836.689 592.222 837.494 597.502 Z"
opacity="1" fill="rgb(27,49,71)" fill-rule="evenodd" />
<path d="
M 694.914 479.59
C 696.412 473.616 704.096 472.949 707.028 478.347
C 708.456 480.977 707.359 483.609 706.32 486.095
C 707.458 488.414 710.287 490.455 712.023 492.366
C 716.146 496.906 720.386 501.309 724.574 505.764
C 724.625 505.778 724.389 504.042 724.402 503.615
C 724.454 501.987 724.516 500.381 724.519 498.752
C 723.621 497.594 721.783 497.73 721.296 496.066
C 720.482 493.284 723.303 488.975 726.59 489.63
C 729.382 490.186 731.216 494.003 729.7 496.383
C 728.946 497.034 728.085 497.514 727.251 498.053
C 726.892 503.033 727.165 508.654 727.56 513.635
C 728.209 521.826 727.622 530.279 727.626 538.494
C 727.629 544.553 727.612 550.612 727.566 556.67
C 727.541 559.961 727.107 563.439 727.642 566.701
C 726.695 566.166 724.867 567.165 723.932 566.562
C 724.199 547.777 724.07 528.974 724.269 510.19
C 719.318 506.644 715.176 501.325 711.25 496.726
C 708.622 493.647 705.721 490.925 703.303 487.661
C 698.444 488.352 694.133 484.706 694.914 479.59 Z
M 698.743 479.999
C 697.748 483.268 702.83 486.145 704.238 482.578
C 705.691 478.895 699.921 476.126 698.743 479.999 Z"
opacity="1" fill="rgb(37,59,83)" fill-rule="evenodd" />
<path d="
M 695.425 577.069
C 696.481 573.645 699.504 572.782 702.694 572.75
C 708.461 572.692 714.234 572.792 720.001 572.818
C 745.834 572.934 771.669 572.854 797.502 572.803
C 802.435 572.794 807.37 572.765 812.302 572.829
C 814.612 572.859 817.391 572.501 819.62 573.189
C 822.37 574.037 823.701 576.666 823.617 579.385
C 823.546 581.675 822.449 584.179 820.207 585.149
C 818.094 586.064 814.764 585.453 812.503 585.456
C 807.003 585.462 801.503 585.465 796.003 585.459
C 769.836 585.432 743.67 585.346 717.503 585.398
C 713.504 585.406 709.504 585.427 705.504 585.412
C 703.446 585.404 701.149 585.678 699.143 585.12
C 695.945 584.23 694.501 580.066 695.425 577.069 Z"
opacity="1" fill="rgb(27,49,70)" fill-rule="evenodd" />
<path d="
M 815.266 344.504
C 815.037 376.839 815.352 409.171 815.277 441.5
C 815.254 451.49 815.237 461.48 815.212 471.47
C 815.199 476.688 814.408 482.502 815.782 487.558
C 815.866 488.309 813.947 486.548 813.283 486.247
C 811.387 485.387 809.024 485.385 807.167 486.346
C 804.795 487.573 803.18 489.94 803.744 492.696
C 803.9 493.463 805.263 495.066 805.051 495.676
C 799.54 501.765 792.437 506.346 787.034 512.514
C 786.383 513.863 786.661 515.798 786.651 517.272
C 786.626 520.846 786.655 524.42 786.663 527.994
C 786.682 536.791 786.759 545.586 786.709 554.383
C 786.686 558.343 786.979 562.442 786.574 566.382
C 784.029 566.94 781.005 566.306 778.394 566.472
C 777.925 564.644 778.237 562.389 778.22 560.502
C 778.182 556.169 778.179 551.834 778.186 547.5
C 778.205 534.335 778.234 521.169 778.24 508.003
C 778.243 502.836 778.204 497.668 778.218 492.501
C 778.223 490.585 777.661 487.569 778.361 485.766
C 778.674 484.957 779.692 484.34 780.316 483.786
C 781.732 482.526 783.12 481.239 784.566 480.014
C 788.601 476.595 792.557 473.046 796.468 469.485
C 797.91 468.171 799.829 465.639 801.53 464.852
C 803.586 465.393 805.759 465.647 807.67 464.513
C 811.501 462.241 812.766 456.074 809.074 453.044
C 807.334 451.615 805.267 451.763 803.159 451.687
C 803.36 442.126 802.646 432.518 802.948 422.97
C 803.743 422.13 804.95 421.766 805.538 420.702
C 805.908 420.033 805.924 419.168 805.906 418.423
C 805.733 411.421 794.554 414.51 797.369 420.38
C 797.858 421.399 798.71 422.103 799.564 422.805
C 800.572 425.039 799.826 429.052 799.826 431.492
C 799.825 436.428 799.894 441.365 799.912 446.301
C 799.919 448.329 800.412 450.808 800.049 452.781
C 798.261 454.885 796.058 456.227 797.089 459.438
C 797.421 460.471 798.88 461.829 798.864 462.838
C 793.198 467.291 788.076 472.382 782.586 477.041
C 780.227 479.043 776.172 481.665 774.887 484.539
C 774.072 486.364 774.649 489.522 774.642 491.496
C 774.622 496.83 774.624 502.164 774.62 507.498
C 774.61 520.163 774.644 532.827 774.697 545.492
C 774.725 552.439 775.173 559.577 774.614 566.5
C 772.259 566.55 769.942 566.662 767.592 566.431
C 766.803 559.08 767.414 551.395 767.413 544
C 767.41 529.325 767.535 514.65 767.569 499.974
C 767.585 493.483 767.601 486.992 767.565 480.501
C 767.552 478.164 766.79 474.571 767.638 472.397
C 769.367 470.257 771.853 468.55 773.917 466.737
C 776.811 464.196 779.566 461.496 782.467 458.961
C 784.421 457.254 787.283 455.503 788.562 453.189
C 789.208 452.02 788.899 450.178 788.91 448.895
C 788.933 445.96 788.948 443.033 788.944 440.099
C 788.929 429.402 789.712 418.497 788.819 407.838
C 790.753 406.732 792.523 406.048 793.484 403.812
C 795.423 399.307 791.819 394.672 787.016 395.069
C 782.18 395.469 779.77 401.691 782.091 405.644
C 782.823 406.891 784.18 407.483 785.401 408.118
C 785.74 409.045 785.416 410.744 785.43 411.775
C 785.469 414.684 785.447 417.597 785.456 420.506
C 785.478 427.554 785.532 434.597 785.575 441.643
C 785.594 444.801 786.159 448.626 785.471 451.703
C 778.647 458.447 770.524 464.021 763.905 470.991
C 763.591 473.317 763.955 475.91 763.958 478.269
C 763.966 483.581 763.952 488.887 763.954 494.2
C 763.96 510.135 763.868 526.07 763.899 542.004
C 763.911 548.075 763.956 554.144 763.965 560.215
C 763.967 561.683 763.989 563.144 764.074 564.609
C 764.105 565.15 764.324 566.07 763.93 566.495
C 762.072 566.592 760.199 566.387 758.355 566.512
C 757.429 558.717 758.241 550.356 758.235 542.502
C 758.224 526.503 758.244 510.503 758.279 494.505
C 758.295 487.557 759.175 480.097 758.229 473.209
C 755.432 469.723 751.664 466.791 748.414 463.731
C 741.161 456.901 733.691 450.324 726.35 443.606
C 725.939 446.806 726.178 450.153 726.144 453.377
C 726.127 454.984 725.721 456.874 725.966 458.438
C 727.926 460.884 730.84 462.82 733.161 464.938
C 738.995 470.262 745.274 475.432 750.644 481.225
C 751.031 483.561 750.758 486.124 750.762 488.49
C 750.769 493.156 750.774 497.823 750.77 502.489
C 750.758 516.489 750.795 530.491 750.689 544.491
C 750.651 549.492 750.608 554.492 750.605 559.493
C 750.604 561.661 750.138 564.585 750.716 566.668
C 749.431 566.535 748.104 566.628 746.816 566.561
C 747.339 559.438 746.928 552.141 746.927 545
C 746.925 531.833 746.927 518.666 746.927 505.5
C 746.928 500.077 747.001 494.663 747.057 489.243
C 747.074 487.562 747.705 484.25 746.833 482.755
C 745.368 480.241 742.287 478.253 740.174 476.304
C 735.514 472.005 730.887 467.671 726.206 463.396
C 725.1 462.386 723.743 461.622 722.698 460.567
C 722.227 457.489 722.566 454.115 722.6 451.004
C 722.686 443.187 723.375 435.041 722.65 427.256
C 721.631 426.385 720.593 425.67 719.995 424.426
C 719.559 423.519 719.332 422.544 719.365 421.536
C 719.391 420.712 719.629 419.942 720.062 419.241
C 723.623 413.487 732.477 419.13 728.936 424.56
C 728.256 425.603 727.337 426.333 726.376 427.101
C 725.974 428.018 726.277 429.71 726.258 430.732
C 726.196 434.158 726.542 437.664 726.274 441.076
C 730.036 440.899 733.377 445.231 735.995 447.604
C 743.639 454.534 751.368 461.394 759.029 468.284
C 759.095 468.226 759.023 467.408 759.02 467.319
C 758.984 466.212 759.051 465.098 759.053 463.988
C 759.064 459.635 759.22 455.264 758.965 450.916
C 757.93 449.336 755.813 447.902 754.385 446.656
C 751.638 444.259 748.969 441.777 746.226 439.376
C 744.936 438.246 742.238 436.79 741.753 435.072
C 741.441 433.97 741.668 432.647 741.664 431.51
C 741.656 428.843 741.66 426.177 741.657 423.51
C 741.647 415.23 741.515 406.946 741.447 398.665
C 741.43 396.541 741.435 394.413 741.565 392.291
C 741.626 391.3 741.991 389.866 741.716 388.925
C 739.418 387.882 737.142 386.459 736.173 383.98
C 734.275 379.123 737.079 373.276 742.544 372.845
C 747.919 372.422 752.565 377.381 750.998 382.736
C 750.069 385.911 747.49 387.575 744.73 389.024
C 744.514 398.322 744.941 407.691 744.877 417.002
C 744.853 420.499 744.833 423.998 744.827 427.496
C 744.824 429.407 744.603 431.546 745.002 433.419
C 746.401 435.381 748.596 436.97 750.386 438.575
C 753.442 441.316 756.333 444.278 759.472 446.915
C 759.657 446.691 759.359 445.825 759.34 445.529
C 759.241 443.993 759.282 442.443 759.299 440.902
C 759.37 434.602 759.35 428.3 759.389 421.999
C 759.539 397.667 759.774 373.342 759.702 349.005
C 759.66 334.571 759.588 320.128 759.755 305.694
C 759.774 304.04 760.049 302.036 759.144 300.559
C 757.617 298.07 753.41 298.024 751.555 300.138
C 750.295 301.575 750.293 303.525 750.259 305.336
C 750.19 309.056 750.239 312.781 750.234 316.501
C 750.219 326.668 750.215 336.835 750.249 347.002
C 750.259 350.168 750.273 353.335 750.277 356.501
C 750.28 358.124 750.538 359.838 750.043 361.407
C 747.558 366.49 740.508 363.632 740.161 358.756
C 739.779 353.379 740.068 347.882 740.067 342.493
C 740.065 332.327 740.1 322.163 740.085 311.998
C 740.077 306.936 741.949 297.153 733.953 298.324
C 731.844 298.632 730.476 300.482 730.173 302.504
C 729.488 307.096 729.924 312.001 729.939 316.635
C 729.986 330.923 730.161 345.211 730.168 359.499
C 730.171 363.833 730.179 368.167 730.185 372.501
C 730.188 374.535 729.828 376.99 730.487 378.937
C 731.314 380.084 732.414 380.947 733.515 381.816
C 734.27 382.828 734.2 384.319 734.361 385.531
C 735.032 390.605 732.739 397.713 727.381 399.539
C 721.878 401.415 716.537 396.52 714.583 391.801
C 713.713 389.701 713.619 387.228 714.29 385.057
C 715.185 382.165 717.598 380.439 719.474 378.233
C 720.125 376.372 719.775 373.951 719.773 372.003
C 719.769 367.67 719.762 363.337 719.751 359.004
C 719.715 344.215 719.574 329.427 719.568 314.637
C 719.567 310.543 720.531 304.971 719.066 301.081
C 718.165 298.69 714.768 297.887 712.541 298.911
C 711.019 299.611 708.462 302.868 707.891 304.451
C 707.263 306.195 707.701 308.806 707.707 310.638
C 707.721 315.09 707.694 319.543 707.679 323.995
C 707.593 349.165 707.415 374.341 707.418 399.501
C 707.419 406.419 707.56 413.335 707.572 420.244
C 707.574 421.982 707.664 423.751 707.557 425.485
C 707.518 426.118 707.185 426.798 707.691 427.295
C 713.434 429.012 715.412 434.976 711.728 439.767
C 710.623 441.204 708.98 441.543 707.688 442.661
C 707.885 446.667 707.771 450.727 707.742 454.739
C 707.727 456.733 707.432 459.164 708.001 461.082
C 710.517 463.974 713.851 466.427 716.756 468.926
C 724.015 475.173 731.206 481.698 738.111 488.333
C 738.943 489.736 738.362 492.522 738.36 494.125
C 738.352 499.249 738.325 504.372 738.331 509.496
C 738.347 521.998 738.412 534.5 738.38 547.002
C 738.364 553.349 737.551 560.279 738.441 566.563
C 737.367 566.891 736 566.471 734.889 566.506
C 733.675 541.115 736.224 515.538 734.708 490.158
C 733.012 487.522 729.518 485.477 727.199 483.382
C 722.484 479.121 717.992 474.628 713.093 470.563
C 711.206 468.997 709.404 467.317 707.556 465.704
C 706.68 464.939 705.393 464.064 704.852 463.01
C 704.106 461.559 704.429 458.737 704.455 457.124
C 704.508 453.804 704.605 450.494 704.608 447.173
C 704.61 445.712 704.853 443.957 704.521 442.538
C 701.576 441.633 699.768 439.906 698.043 437.486
C 696.962 432.82 698.862 428.654 703.698 427.387
C 704.116 424.191 703.761 420.729 703.743 417.506
C 703.709 411.337 703.653 405.17 703.665 399.001
C 703.705 378.501 703.661 358.003 703.625 337.503
C 703.613 330.356 703.562 323.21 703.561 316.064
C 703.56 312.908 702.943 308.952 703.747 305.901
C 706.964 302.516 710.131 299.35 712.394 295.197
C 714.184 291.91 715.129 288.272 716.625 284.865
C 718.603 284.419 720.974 284.737 723.004 284.726
C 727.171 284.702 731.337 284.717 735.504 284.671
C 749.837 284.514 764.174 284.605 778.508 284.588
C 784.026 284.581 789.543 284.538 795.061 284.519
C 797.128 284.512 800.437 283.875 802.338 284.638
C 803.798 290.508 806.547 296.288 810.394 300.965
C 811.825 302.703 813.556 304.113 815.088 305.748
C 815.492 306.89 815.244 308.304 815.25 309.503
C 815.265 312.17 815.254 314.837 815.258 317.503
C 815.271 326.506 815.329 335.505 815.266 344.504 Z
M 701.329 433.547
C 699.898 438.924 708.43 441.058 709.683 435.772
C 710.846 430.865 702.703 428.383 701.329 433.547 Z
M 717.39 387.101
C 716.297 396.276 730.185 397.349 731.415 388.513
C 732.452 381.065 722.973 377.748 718.732 383.731
C 717.998 384.767 717.541 385.831 717.39 387.101 Z
M 722.378 421.013
C 721.222 423.488 724.875 425.913 726.214 423.266
C 727.622 420.482 723.688 418.205 722.378 421.013 Z
M 739.376 378.536
C 737.102 383.967 745.122 387.684 747.382 382.29
C 749.551 377.113 741.501 373.463 739.376 378.536 Z
M 767.415 412.07
C 766.86 415.204 768.314 418.352 771.154 419.862
C 774.213 421.488 779.123 419.709 780.115 416.358
C 780.984 413.422 779.872 411.346 779.446 408.517
C 779.066 405.99 779.434 402.898 779.711 400.36
C 780.014 397.571 781.206 395.008 781.389 392.191
C 781.876 384.669 781.358 377.036 781.302 369.506
C 781.196 355.006 781.126 340.503 781.137 326.003
C 781.142 319.169 781.192 312.335 781.202 305.5
C 781.206 302.651 781.27 299.233 777.634 298.75
C 775.474 298.464 772.947 299.699 772.385 301.952
C 771.793 304.321 772.185 307.125 772.205 309.546
C 772.244 314.198 772.241 318.85 772.241 323.502
C 772.241 351.612 772.836 379.758 772.276 407.861
C 771.732 408.498 770.523 408.723 769.799 409.162
C 768.634 409.867 767.966 410.857 767.415 412.07 Z
M 793.508 303.626
C 792.939 313.199 793.43 322.924 793.443 332.512
C 793.463 348.341 793.306 364.171 793.335 380
C 793.341 383.382 793.297 386.763 793.395 390.144
C 793.447 391.931 793.402 393.907 794.381 395.478
C 795.797 397.75 801.041 399.137 802.749 396.348
C 803.013 393.947 802.746 391.422 802.737 389.006
C 802.716 383.841 802.681 378.675 802.64 373.51
C 802.522 358.842 802.566 344.169 802.588 329.5
C 802.598 322.937 802.577 316.373 802.556 309.81
C 802.548 307.374 803.166 303.457 802.239 301.19
C 801.028 298.225 795.949 298.399 794.135 300.561
C 793.431 301.4 793.662 302.61 793.508 303.626 Z"
opacity="1" fill="rgb(30,57,84)" fill-rule="evenodd" />
<path d="
M 706.966 525.513
C 706.195 524.44 705.512 523.242 704.489 522.386
C 704.351 521.853 704.248 521.563 703.76 521.299
C 701.474 520.819 698.939 519.159 698.053 516.934
C 696.648 513.405 698.667 508.995 702.393 508.052
C 707.349 506.798 711.555 510.922 710.52 515.89
C 710.103 517.893 708.813 519.369 707.2 520.557
C 708.769 523.683 713.356 525.332 714.765 528.68
C 715.174 529.653 714.941 530.969 714.982 532.002
C 715.075 534.336 715.138 536.656 715.151 538.994
C 715.188 545.262 715.146 551.531 715.159 557.799
C 715.164 560.602 714.677 563.923 715.213 566.668
C 714.042 566.648 712.853 566.656 711.682 566.667
C 710.964 563.557 711.611 559.702 711.628 556.509
C 711.66 550.677 711.642 544.843 711.606 539.011
C 711.589 536.121 711.845 533.109 711.494 530.238
C 710.197 528.488 708.258 527.287 706.966 525.513 Z
M 701.246 513.499
C 700.156 516.975 705.533 519.636 706.942 515.962
C 708.406 512.143 702.588 509.219 701.246 513.499 Z"
opacity="1" fill="rgb(41,62,87)" fill-rule="evenodd" />
<path d="
M 704.489 522.386
C 705.512 523.242 706.195 524.44 706.966 525.513
C 705.802 525.522 706.328 528.145 706.389 528.949
C 706.676 532.783 706.534 536.65 706.543 540.493
C 706.558 546.659 706.55 552.825 706.539 558.991
C 706.535 561.3 705.845 564.917 706.656 567.081
C 705.624 566.903 704.465 566.799 703.424 566.896
C 703.064 566.072 703.29 564.894 703.284 563.997
C 703.268 561.664 703.294 559.33 703.291 556.996
C 703.282 548.83 703.315 540.663 703.298 532.496
C 703.293 530.003 703.237 527.481 703.366 524.991
C 703.422 523.901 703.348 522.735 704.489 522.386 Z"
opacity="1" fill="rgb(167,172,179)" fill-rule="evenodd" />
<path d="
M 717.971 270.088
C 718.146 269.34 717.962 269.749 718.777 269.011
C 733.45 268.224 748.308 268.771 763.003 268.735
C 775.825 268.703 788.892 268.043 801.689 268.803
C 801.051 271.712 801.124 276.225 801.719 279.161
C 795.319 278.52 788.447 279.256 782 279.261
C 768.166 279.271 754.333 279.232 740.499 279.198
C 735.332 279.186 730.165 279.178 724.999 279.183
C 722.837 279.185 719.916 279.686 717.843 279.112
C 717.954 276.113 717.703 273.077 717.971 270.088 Z"
opacity="1" fill="rgb(44,73,102)" fill-rule="evenodd" />
<path d="
M 721.336 386.51
C 723.002 382.421 729.344 384.716 727.719 388.804
C 726.233 392.541 719.72 390.474 721.336 386.51 Z"
opacity="1" fill="rgb(37,58,83)" fill-rule="evenodd" />
<path d="
M 733.894 740.905
C 742.006 734.161 753.859 733.342 763.209 738.216
C 764.946 739.121 766.593 740.145 768.215 741.243
C 768.834 741.662 769.747 742.132 770.032 742.848
C 769.413 744.703 767.862 746.07 767.328 747.986
C 766.182 748.167 763.559 745.754 762.477 745.17
C 759.084 743.339 755.398 742.133 751.542 741.825
C 747.69 741.517 743.211 742.059 740.051 744.466
C 736.442 747.216 735.431 753.448 738.863 756.781
C 741.275 759.124 744.952 760.07 748.131 760.79
C 756.234 762.625 768.671 764.188 771.349 773.723
C 771.827 775.421 771.928 777.226 771.833 778.982
C 771.7 781.421 771.022 783.527 770.057 785.754
C 768.82 787.473 767.747 789.093 766.042 790.402
C 758.296 796.353 746.876 795.525 738.116 792.709
C 735.699 791.54 733.389 790.55 731.17 788.989
C 729.911 788.102 728.881 786.82 727.574 786.036
C 728.202 784.177 729.656 782.027 730.904 780.512
C 733.239 782.159 735.26 784.071 737.807 785.434
C 743.111 788.274 749.541 789.01 755.427 787.963
C 761.17 786.941 767.274 781.72 763.991 775.27
C 761.738 770.843 755.391 769.828 751.003 768.86
C 742.266 766.932 730.166 763.942 729.685 753.108
C 729.609 751.402 729.655 749.626 729.985 747.948
C 730.548 745.088 732.039 743.056 733.894 740.905 Z"
opacity="1" fill="rgb(24,43,64)" fill-rule="evenodd" />
<path d="
M 762.395 236.65
C 771.825 235.773 781.571 236.429 791.04 236.442
C 797.449 236.452 803.858 236.461 810.267 236.488
C 817.847 236.521 825.426 236.622 833.006 236.688
C 837.786 236.73 842.855 236.375 847.551 237.409
C 856.208 239.314 864.774 244.644 870.351 251.519
C 872.659 254.364 874.804 257.508 875.991 261.001
C 879.853 271.875 878.985 283.323 872.803 293.219
C 870.918 296.235 868.621 298.611 866.22 301.19
C 865.401 301.85 864.533 302.486 863.757 303.195
C 859.073 306.435 854.064 309.07 848.379 310.012
C 832.226 312.691 815.593 302.453 809.443 287.457
C 807.377 282.419 806.823 277.323 807.063 271.928
C 807.152 269.924 807.349 267.944 807.607 265.956
C 807.681 265.382 808.021 264.296 807.737 263.777
C 792.678 263.533 777.532 263.575 762.473 263.827
C 761.843 263.365 761.984 261.677 761.963 260.93
C 761.893 258.457 761.308 255.333 761.885 252.933
C 762.921 252.128 764.827 252.428 766.113 252.399
C 769.907 252.313 773.707 252.399 777.501 252.398
C 787.835 252.395 798.168 252.391 808.501 252.416
C 813.512 252.427 819.32 251.664 824.227 252.786
C 824.142 253.438 822.579 254.707 822.12 255.251
C 820.603 257.049 819.177 258.876 818.045 260.949
C 814.085 268.2 813.867 277.01 816.879 284.632
C 824.012 302.681 848.819 306.886 862.201 293.06
C 866.877 288.228 869.033 281.479 869.384 274.889
C 869.578 271.257 869.252 267.53 867.981 264.086
C 864.559 254.818 855.499 248.502 845.937 246.954
C 841.614 246.254 837.379 246.895 833.068 247.187
C 828.808 247.476 824.497 247.52 820.232 247.538
C 800.827 247.618 781.401 247.498 761.988 247.686
C 762.196 247.247 761.82 246.037 761.817 245.506
C 761.801 243.012 761.067 238.804 762.395 236.65 Z"
opacity="1" fill="rgb(101,116,133)" fill-rule="evenodd" />
<path d="
M 766.858 217.811
C 769.735 217.962 772.627 217.877 775.503 217.843
C 788.311 217.762 801.19 218.387 813.99 217.882
C 818.567 217.457 823.394 217.912 827.999 217.896
C 837.662 217.862 847.329 217.818 856.993 217.852
C 860.43 217.817 865.611 216.703 867.23 220.682
C 867.659 221.738 867.587 223.253 867.649 224.392
C 866.774 226.579 865.884 229.282 863.681 230.504
C 861.645 231.632 858.726 231.056 856.499 231.036
C 851.665 230.994 846.829 231.028 841.995 231.062
C 824.997 231.178 807.996 231.106 790.998 231.102
C 782.232 231.1 773.234 231.808 764.496 231.105
C 764.165 230.285 764.943 228.766 765.096 227.909
C 765.674 224.679 765.695 220.864 766.858 217.811 Z"
opacity="1" fill="rgb(162,167,173)" fill-rule="evenodd" />
<path d="
M 784.939 400.076
C 784.99 399.942 785.041 399.809 785.092 399.676
C 785.391 399.236 785.69 398.868 786.167 398.606
C 789.613 396.712 792.572 402.585 789.2 403.762
C 788.671 403.946 788.032 403.969 787.479 403.973
C 786.712 403.98 786.132 403.928 785.539 403.426
C 784.775 402.41 784.736 401.296 784.939 400.076 Z"
opacity="1" fill="rgb(30,53,77)" fill-rule="evenodd" />
<path d="
M 790.263 514.454
C 795.224 508.337 802.515 504.22 807.461 498.137
C 810.645 498.316 813.187 498.52 815.487 495.799
C 815.74 497.159 815.276 498.932 815.234 500.332
C 815.133 503.716 815.231 507.118 815.242 510.504
C 815.283 522.336 815.264 534.169 815.26 546.001
C 815.258 550.667 815.279 555.335 815.234 560.001
C 815.216 561.894 815.619 564.513 814.884 566.288
C 812.397 566.383 809.907 566.301 807.424 566.428
C 807.015 565.606 807.219 564.415 807.211 563.502
C 807.194 561.669 807.175 559.836 807.168 558.003
C 807.141 551.053 807.827 543.64 807.055 536.744
C 808.408 535.426 809.779 535.459 810.754 533.541
C 811.188 532.687 811.37 531.785 811.507 530.843
C 812.678 522.78 798.839 522.71 799.404 530.994
C 799.481 532.126 799.839 533.188 800.44 534.149
C 801.24 535.427 802.401 536.117 803.737 536.725
C 804.28 539.052 803.732 542.091 803.732 544.493
C 803.73 549.326 803.786 554.16 803.794 558.993
C 803.798 561.4 803.51 564.005 803.843 566.386
C 799.497 566.125 794.773 566.196 790.425 566.465
C 789.94 563.922 790.226 561.088 790.225 558.503
C 790.222 554.003 790.191 549.502 790.167 545.002
C 790.131 538.335 790.132 531.667 790.155 525
C 790.167 521.555 789.785 517.865 790.263 514.454 Z"
opacity="1" fill="rgb(29,51,75)" fill-rule="evenodd" />
<path d="
M 815.008 735.261
C 819.99 735.291 824.662 736.972 828.938 739.431
C 830.644 740.413 832.071 741.77 833.841 742.65
C 832.949 744.46 831.414 745.862 830.716 747.82
C 830.255 748.156 829.367 747.328 828.941 747.049
C 827.246 745.936 825.53 744.876 823.651 744.1
C 818.548 741.991 812.767 740.951 807.397 742.686
C 804.761 743.538 802.081 745.302 801.177 748.052
C 799.895 751.95 800.828 756.183 804.557 758.242
C 813.013 762.91 824.148 761.324 831.556 768.292
C 837.606 773.982 836.676 784.698 830.483 789.918
C 826.688 793.115 821.332 794.419 816.49 794.751
C 809.69 795.035 803.175 793.683 797.169 790.451
C 794.97 789.268 793.358 787.177 791.199 786.029
C 791.407 784.228 793.425 782.116 794.479 780.701
C 796.896 781.769 798.979 784.076 801.379 785.361
C 807.02 788.38 814.077 789.129 820.29 787.711
C 825.739 786.467 831.29 780.464 827.274 774.757
C 825.139 771.724 821.289 770.723 817.913 769.771
C 811.595 767.99 804.273 767.159 798.874 763.119
C 791.379 757.51 792.075 745.451 799.163 739.738
C 803.776 736.02 809.317 735.431 815.008 735.261 Z"
opacity="1" fill="rgb(23,42,63)" fill-rule="evenodd" />
<path d="
M 801.401 456.993
C 802.323 455.879 803.549 455.088 805.055 455.415
C 806.796 455.793 807.834 458.191 807.109 459.757
C 805.236 463.804 799.95 461.056 801.401 456.993 Z"
opacity="1" fill="rgb(25,47,70)" fill-rule="evenodd" />
<path d="
M 802.932 530.069
C 803.241 528.668 804.731 527.988 806.043 527.896
C 806.56 528.148 806.967 528.475 807.33 528.928
C 810.104 532.383 803.059 534.964 802.932 530.069 Z"
opacity="1" fill="rgb(22,42,64)" fill-rule="evenodd" />
<path d="
M 807.387 490.507
C 807.517 490.337 807.647 490.168 807.777 489.998
C 810.603 487.665 814.473 490.557 812.405 493.831
C 811.264 495.638 808.602 495.251 807.544 493.542
C 806.989 492.645 807.11 491.466 807.387 490.507 Z"
opacity="1" fill="rgb(31,49,71)" fill-rule="evenodd" />
<path d="
M 820.443 270.092
C 820.856 267.283 821.979 264.446 823.419 262.007
C 824.787 259.691 826.6 257.788 828.71 256.135
C 839.419 247.745 855.544 252.151 861.671 264.113
C 863.866 268.398 864.351 273.207 863.619 277.935
C 863.212 280.565 862.251 283.302 860.78 285.53
C 858.508 288.971 855.409 291.993 851.597 293.675
C 839.835 298.866 825.176 292.998 821.241 280.485
C 820.195 277.159 819.936 273.541 820.443 270.092 Z
M 828.418 271.088
C 827.165 277.676 830.467 284.357 836.629 287.119
C 844.584 290.686 854.249 286.05 855.857 277.324
C 857.058 270.812 854.077 264.32 848.046 261.385
C 839.986 257.463 830.09 262.292 828.418 271.088 Z"
opacity="1" fill="rgb(96,113,132)" fill-rule="evenodd" />
<path d="
M 833.855 272.073
C 834.083 270.955 834.572 269.825 835.182 268.863
C 837.804 264.732 843.33 264.146 846.975 267.283
C 849.572 269.517 850.766 273.061 850.128 276.414
C 849.138 281.62 842.433 284.058 837.976 281.71
C 834.548 279.903 833.106 275.746 833.855 272.073 Z"
opacity="1" fill="rgb(95,112,128)" fill-rule="evenodd" />
<path d="
M 858.395 752.96
C 860.201 749.453 861.905 746.083 864.681 743.2
C 872.447 735.134 884.298 732.891 894.581 737.293
C 912.394 743.443 914.48 767.488 906.723 781.819
C 905.503 783.94 903.825 785.84 902.131 787.596
C 901.686 787.985 901.219 788.342 900.784 788.744
C 892.414 795.085 881.041 796.911 871.426 792.041
C 868.163 790.388 865.636 787.986 863.084 785.418
C 855.792 776.056 854.77 764.064 858.395 752.96 Z
M 863.493 763.123
C 863.182 770.526 864.95 778.144 870.533 783.373
C 878.086 790.445 891.285 789.686 898.184 782.059
C 901.977 777.867 903.607 772.127 903.826 766.571
C 904.069 760.401 902.954 753.969 899.022 749.041
C 892.095 740.359 878.72 739.171 870.465 746.696
C 865.924 750.836 863.747 757.105 863.493 763.123 Z"
opacity="1" fill="rgb(22,42,63)" fill-rule="evenodd" />
<path d="
M 931.34 785.472
C 932.497 783.838 933.511 781.977 934.948 780.572
C 940.567 787.145 950.313 789.032 958.49 787.912
C 963.956 787.164 968.554 784.024 968.465 778.023
C 968.368 771.53 960.676 769.808 955.578 768.671
C 948.402 767.071 937.555 765.254 934.542 757.451
C 933.753 755.409 933.681 753.05 933.72 750.889
C 933.758 748.78 934.191 746.94 934.953 744.98
C 936.02 743.229 936.95 741.585 938.5 740.191
C 944.584 734.716 953.967 734.314 961.568 736.184
C 965.151 737.137 968.24 738.661 971.351 740.678
C 972.006 741.103 973.866 742.036 974.001 742.83
C 973.24 744.697 971.073 746.183 971.121 748.342
C 970.862 748.418 969.924 747.504 969.672 747.32
C 968.251 746.281 966.845 745.263 965.283 744.443
C 961.174 742.284 956.204 741.509 951.604 741.841
C 948.707 742.05 945.602 742.816 943.425 744.854
C 939.998 748.063 939.699 754.239 943.656 757.174
C 945.587 758.606 947.922 759.381 950.204 760.042
C 958.802 762.531 972.611 763.185 975.457 773.708
C 975.923 775.431 975.944 777.277 975.808 779.049
C 975.641 781.221 975.124 783.336 974.027 785.239
C 972.59 787.733 970.463 789.387 968.324 791.229
C 967.821 791.531 967.312 791.826 966.799 792.112
C 958.012 795.707 947.418 795.737 938.835 791.313
C 936.739 790.233 934.883 788.79 932.993 787.395
C 932.295 786.879 931.182 786.322 931.34 785.472 Z"
opacity="1" fill="rgb(23,43,63)" fill-rule="evenodd" />

</svg>